THE GREEN HORNET 1080P (2011) (DD5.1 & DTS)  
 


Verenigde Staten
Actie / Komedie
119 minuten

met Seth Rogen, Jay Chou en Christoph Waltz


Liefhebbers van een avondje film, vergeet niet dat er naast de "Grote Hollywoodreleases" nog tig van "andere" kwaliteitsfilms zijn, die te goed zijn om in de anonimiteit te verzwelgen.[/b]


Een film geregisseerd door Michel Gondry, gebaseerd op de fictieve misdaadbestrijder The Green Hornet, die eerder al in verscheidene radioshows, films en televisieseries mocht opdraven. Nicolas Cage stond op het punt de slechterik te spelen. De rol ging uiteindelijk naar een andere Oscarwinnaar: Christoph Waltz.[/b]
Samenvatting
Film met Seth Rogen als krantenuitgever Britt Reid die 's nachts als de Green Hornet samen met zijn maatje Kato de strijd aangaat met criminelen.

Recensie
Luchtige en vermakelijke superheldenfilm, die er visueel erg sterk uitziet en zeker zo zijn sterke momenten heeft. Met de actie zit het wel snor, de film heeft veel vaart en wordt energiek in beeld gebracht. Regisseur Gondry heeft een oog voor visuele flair en hij laat tevens zien dat hij met deze actiescènes ook goed uit de voeten kan.

De (auto) achtervolgingen zijn goed vormgegeven, waarbij het fraaiste special effect de "Black Beauty" is, de klassieke auto die de Green Hornet en Kato gebruiken tijdens hun nachtelijke avonturen. Het is dezelfde auto die in de tv-serie uit de jaren 60 werd gebruikt. Toen was de Black Beauty gloednieuw en geavanceerd, nu heeft het een prima retro look, en heeft het allerlei hedendaagse snufjes waar James Bond of Batman zich niet voor zouden hoeven schamen. Over de tv-serie gesproken: er zit ook een klein eerbetoon aan Bruce Lee (die destijds Kato speelde) in deze film. De film The Green Hornet, biedt genoeg vermaak, flitsende actie en stunts en een aantal geslaagde grappen om een niet al te kritische filmkijker tevreden te stellen. 

Verhaal
Britt Reid is de zoon van de rijke krantenuitgever James Reid. Terwijl zijn vader de corruptie in de stad via de kranten aankaart, geniet Britt van zijn luxeleven. Maar wanneer James op een dag vermoord wordt, komt het bedrijf in handen van Britt. Hij besluit dat hij iets moet teruggeven aan de samenleving. Samen met zijn assistent Kato wil hij de misdaad bestrijden. Ze vermommen zich en trekken er 's nachts op uit. Britt noemt zichzelf "The Green Hornet", maar het is vooral de behendige Kato die het vuile werk opknapt. Benjamin Chudnofsky is hun voornaamste doelwit, want hij wil alle misdaadbazen uit de stad verenigen.

 
http://www.moviemeter.nl/film/60011

English

Storyline
Playboy Britt Reid (Seth Rogen) becomes the new publisher of Los Angeles' "The Daily Sentinel" after the sudden death of his father. Britt's party life is about to change when he and his driver and kung fu expert, Kato (Jay Chou), stop a robbery. With the help of Kato, Britt starts a new career of fighting crime as the masked superhero "The Green Hornet". 
 
http://www.imdb.com/title/tt0990407/

...bron: 1080p.DTS.x264-CHD
...Beeld: (1920*800)
...Container: x264 (MKV)

...Ondertitels: NEDERLANDS, English
...Audio: English DD5.1 & DTS (ac3 Toegevoegd) 
Subtitles.NL.......: Tokke, Heksje, Biteme en Suurtje (het mooie team !!)
Controle...........: Tokke & Suurtje (THX)
Bewerking+Resync...: INge2222 & THC

 


 
  Weblink :  http://www.moviemeter.nl/film/60011
  Weblink :  http://www.imdb.com/title/tt0990407/

TBS

MEDIA INFO


General
Complete name                    : THE_GREEN_HORNET_1080P_(2011)___NL_SRT_SUBS___(DD5.1_&_DTS)test\The.GreenHornet.2011.1080.NLSUBS.x264.BluRay-SRT\The.GreenHornet.2011.1080.NLSUBS.x264.BluRay-SRT.mkv
Format                           : Matroska
File size                        : 12.0 GiB
Duration                         : 1h 58mn
Overall bit rate                 : 14.5 Mbps
Encoded date                     : UTC 2011-04-01 22:21:11
Writing application              : mkvmerge v2.3.0 ('Freak U') built on Sep  8 2008 18:32:16
Writing library                  : libebml v0.7.7 + libmatroska v0.8.1

Video
ID                               : 1
Format                           : AVC
Format/Info                      : Advanced Video Codec
Format profile                   : High@L4.1
Format settings, CABAC           : Yes
Format settings, ReFrames        : 5 frames
Muxing mode                      : Container profile=Unknown@4.1
Codec ID                         : V_MPEG4/ISO/AVC
Duration                         : 1h 58mn
Bit rate                         : 12.4 Mbps
Width                            : 1 920 pixels
Height                           : 800 pixels
Display aspect ratio             : 2.40:1
Frame rate                       : 23.976 fps
Color space                      : YUV
Chroma subsampling               : 4:2:0
Bit depth                        : 8 bits
Scan type                        : Progressive
Bits/(Pixel*Frame)               : 0.335
Stream size                      : 10.0 GiB (83%)
Title                            : The.Green.Hornet.2011
Writing library                  : x264 core 114 r1924 08d04a4
Encoding settings                : cabac=1 / ref=5 / deblock=1:-3:-3 / analyse=0x3:0x113 / me=umh / subme=10 / psy=1 / psy_rd=1.05:0.10 / mixed_ref=1 / me_range=48 / chroma_me=1 / trellis=2 / 8x8dct=1 / cqm=2 / deadzone=21,11 / fast_pskip=0 / chroma_qp_offset=-2 / threads=12 / sliced_threads=0 / nr=0 / decimate=1 / interlaced=0 / constrained_intra=0 / bframes=6 / b_pyramid=2 / b_adapt=2 / b_bias=0 / direct=3 / weightb=1 / open_gop=0 / weightp=2 / keyint=250 / keyint_min=23 / scenecut=40 / intra_refresh=0 / rc_lookahead=60 / rc=2pass / mbtree=1 / bitrate=12350 / ratetol=1.0 / qcomp=0.70 / qpmin=1 / qpmax=63 / qpstep=4 / cplxblur=20.0 / qblur=0.5 / vbv_maxrate=40000 / vbv_bufsize=30000 / nal_hrd=none / ip_ratio=1.40 / aq=1:0.80
Language                         : English

Audio #1
ID                               : 2
Format                           : AC-3
Format/Info                      : Audio Coding 3
Mode extension                   : CM (complete main)
Codec ID                         : A_AC3
Duration                         : 1h 58mn
Bit rate mode                    : Constant
Bit rate                         : 640 Kbps
Channel(s)                       : 6 channels
Channel positions                : Front: L C R, Side: L R, LFE
Sampling rate                    : 48.0 KHz
Bit depth                        : 16 bits
Stream size                      : 544 MiB (4%)
Title                            : English AC3
Language                         : English

Audio #2
ID                               : 3
Format                           : DTS
Format/Info                      : Digital Theater Systems
Codec ID                         : A_DTS
Duration                         : 1h 58mn
Bit rate mode                    : Constant
Bit rate                         : 1 510 Kbps
Channel(s)                       : 6 channels
Channel positions                : Front: L C R, Side: L R, LFE
Sampling rate                    : 48.0 KHz
Bit depth                        : 24 bits
Stream size                      : 1.25 GiB (10%)
Title                            : English DTS
Language                         : English

Text #1
ID                               : 4
Format                           : UTF-8
Codec ID                         : S_TEXT/UTF8
Codec ID/Info                    : UTF-8 Plain Text
Title                            : Nederlands SRT
Language                         : Dutch

Text #2
ID                               : 5
Format                           : UTF-8
Codec ID                         : S_TEXT/UTF8
Codec ID/Info                    : UTF-8 Plain Text
Title                            : English
Language                         : English

